<svg width="23" height="16" viewBox="0 0 23 16" fill="none" xmlns="http://www.w3.org/2000/svg">
<path d="M15.9699 3.58058C15.4724 3.18257 14.7261 3.23232 14.3033 3.75471C13.8804 4.27709 13.9799 5.02336 14.5023 5.44624C15.1739 5.9935 15.5968 6.83927 15.5968 7.75966C15.5968 8.75468 15.1242 9.62532 14.3779 10.1726C13.9053 10.5208 13.8306 11.2174 14.2038 11.6651L14.3033 11.7646C14.7013 12.2372 15.4475 12.3368 15.9202 11.9636C17.1639 10.9935 17.96 9.45119 17.96 7.75966C17.96 6.06813 17.1888 4.5756 15.9699 3.58058Z" fill="#A4A4A4"/>
<path d="M18.6815 0.24743C18.184 -0.150578 17.4626 -0.0510764 17.0398 0.421558C16.6417 0.919068 16.6915 1.66533 17.189 2.06334C18.8308 3.43149 19.9004 5.47128 19.9004 7.75983C19.9004 10.0484 18.8308 12.113 17.189 13.4563C16.6915 13.8543 16.6417 14.6006 17.0398 15.0981C17.4378 15.5956 18.184 15.6951 18.6815 15.2971C20.8706 13.5309 22.2885 10.8195 22.2885 7.7847C22.2636 4.72502 20.8706 2.01359 18.6815 0.24743Z" fill="#A4A4A4"/>
<path d="M8.35018 0.318504L3.49589 4.0287H1.11868C0.499413 4.0287 0 4.52471 0 5.13977V10.3777C0 10.9928 0.499413 11.4888 1.11868 11.4888H3.49589L8.37015 15.199C9.22914 15.8537 10.4477 15.2585 10.4477 14.1673V1.33038C10.4477 0.278823 9.20917 -0.336236 8.35018 0.318504Z" fill="#A4A4A4"/>
</svg>
