<svg width="54" height="51" viewBox="0 0 54 51" fill="none" xmlns="http://www.w3.org/2000/svg">
<path d="M28.76 48C31.128 48 33.176 48.64 34.328 50.304H34.456L37.976 36.096L37.848 36.032C33.56 42.368 28.376 46.592 20.248 46.592C15.448 46.592 13.208 44.096 13.208 39.872V6.528C13.208 3.52 14.616 1.152 17.368 0.191998V-3.8147e-06H0.6V0.191998C3.48 1.152 4.824 3.52 4.824 6.528V41.472C4.824 44.736 3.096 46.784 0.6 47.808V48H28.76ZM48.241 48.384C50.929 48.384 53.169 46.016 53.169 43.2C53.169 40.32 50.929 37.952 48.241 37.952C45.297 37.952 43.313 40.32 43.313 43.2C43.313 46.016 45.297 48.384 48.241 48.384Z" fill="black"/>
</svg>
