<svg width="52" height="52" viewBox="0 0 52 52" fill="none" xmlns="http://www.w3.org/2000/svg">
<g clip-path="url(#clip0_223_10372)">
<path d="M32.0241 51.451C32.6046 49.387 31.5726 49 29.3797 49H2.41895V47.839C6.28891 47.839 7.6434 47.065 7.6434 40.0346V12.8804C7.6434 5.78546 6.41791 5.01147 2.41895 5.01147V3.85048H18.6083V5.01147C14.6093 5.01147 13.3193 5.78546 13.3193 12.8804V42.4856C13.3193 46.936 14.6738 47.581 20.0918 47.581H21.8332C31.4436 47.581 33.1206 44.8075 35.9586 36.6161L37.2486 37.0031L33.1851 51.709L32.0241 51.451ZM44.5526 50.161C42.6821 50.161 41.1987 48.742 41.1987 46.8715C41.1987 45.0655 42.6821 43.5821 44.5526 43.5821C46.2941 43.5821 47.7776 45.0655 47.7776 46.8715C47.7776 48.742 46.2941 50.161 44.5526 50.161Z" fill="#5D61DF"/>
</g>
<defs>
<clipPath id="clip0_223_10372">
<rect width="52" height="52" fill="white"/>
</clipPath>
</defs>
</svg>
